<?xml version="1.0" encoding="UTF-8" standalone="no"?>
<svg width="48px" height="48px" viewBox="0 0 48 48" version="1.1" xmlns="http://www.w3.org/2000/svg" xmlns:xlink="http://www.w3.org/1999/xlink">
    <!-- Generator: Sketch 41.2 (35397) - http://www.bohemiancoding.com/sketch -->
    <title>Section Symbols / Blue 48px</title>
    <desc>Created with Sketch.</desc>
    <defs></defs>
    <g id="Symbols" stroke="none" stroke-width="1" fill="none" fill-rule="evenodd">
        <g id="Menus-/-#13" transform="translate(-30.000000, -332.000000)" fill="#FACA00">
            <g id="Options" transform="translate(0.000000, 91.000000)">
                <g id="Employees" transform="translate(30.000000, 241.000000)">
                    <g id="Section-Symbols-/-20%-Yellow-Assign-48px">
                        <g id="Icon">
                            <rect id="Background" fill-opacity="0.2" x="0" y="0" width="48" height="48" rx="12"></rect>
                            <path d="M30,32 L18,32 L18,30.6 C18,28.6 22,27.5 24,27.5 C26,27.5 30,28.6 30,30.6 L30,32 Z M24,20 C25.66,20 27,21.34 27,23 C27,24.66 25.66,26 24,26 C22.34,26 21,24.66 21,23 C21,21.34 22.34,20 24,20 L24,20 Z M24,16 C24.55,16 25,16.45 25,17 C25,17.55 24.55,18 24,18 C23.45,18 23,17.55 23,17 C23,16.45 23.45,16 24,16 L24,16 Z M31,16 L26.82,16 C26.4,14.84 25.3,14 24,14 C22.7,14 21.6,14.84 21.18,16 L17,16 C15.9,16 15,16.9 15,18 L15,32 C15,33.1 15.9,34 17,34 L31,34 C32.1,34 33,33.1 33,32 L33,18 C33,16.9 32.1,16 31,16 L31,16 Z"></path>
                        </g>
                    </g>
                </g>
            </g>
        </g>
    </g>
</svg>