<?xml version="1.0" encoding="UTF-8" standalone="no"?>
<svg width="18px" height="4px" viewBox="0 0 18 4" version="1.1" xmlns="http://www.w3.org/2000/svg" xmlns:xlink="http://www.w3.org/1999/xlink">
    <!-- Generator: Sketch 41.2 (35397) - http://www.bohemiancoding.com/sketch -->
    <title>More Button</title>
    <desc>Created with Sketch.</desc>
    <defs></defs>
    <g id="Symbols" stroke="none" stroke-width="1" fill="none" fill-rule="evenodd">
        <g id="Top-Bars-/-#16" transform="translate(-502.000000, -28.000000)" fill="#FFFFFF">
            <path d="M509,37 C509,38.1 509.9,39 511,39 C512.1,39 513,38.1 513,37 C513,35.9 512.1,35 511,35 C509.9,35 509,35.9 509,37 Z M509,30 C509,31.1 509.9,32 511,32 C512.1,32 513,31.1 513,30 C513,28.9 512.1,28 511,28 C509.9,28 509,28.9 509,30 Z M511,25 C512.1,25 513,24.1 513,23 C513,21.9 512.1,21 511,21 C509.9,21 509,21.9 509,23 C509,24.1 509.9,25 511,25" id="More-Button" transform="translate(511.000000, 30.000000) rotate(-90.000000) translate(-511.000000, -30.000000) "></path>
        </g>
    </g>
</svg>