<?xml version="1.0" encoding="UTF-8" standalone="no"?>
<svg width="16px" height="16px" viewBox="0 0 16 16" version="1.1" xmlns="http://www.w3.org/2000/svg" xmlns:xlink="http://www.w3.org/1999/xlink">
    <!-- Generator: Sketch 41.2 (35397) - http://www.bohemiancoding.com/sketch -->
    <title>Add Icon</title>
    <desc>Created with Sketch.</desc>
    <defs>
        <path d="M75,11.8 L71.8,11.8 L71.8,15 L70.2,15 L70.2,11.8 L67,11.8 L67,10.2 L70.2,10.2 L70.2,7 L71.8,7 L71.8,10.2 L75,10.2 L75,11.8 Z M71,3 C66.584,3 63,6.584 63,11 C63,15.416 66.584,19 71,19 C75.416,19 79,15.416 79,11 C79,6.584 75.416,3 71,3 L71,3 Z" id="path-1"></path>
        <mask id="mask-2" maskContentUnits="userSpaceOnUse" maskUnits="objectBoundingBox" x="0" y="0" width="16" height="16" fill="white">
            <use xlink:href="#path-1"></use>
        </mask>
    </defs>
    <g id="Page-1" stroke="none" stroke-width="1" fill="none" fill-rule="evenodd" stroke-opacity="0.05">
        <g id="Task-Manager" transform="translate(-381.000000, -548.000000)" stroke="#000000" stroke-width="2" fill="#4ECE3D">
            <g id="Gallery" transform="translate(318.000000, 545.000000)">
                <use id="Add-Icon" mask="url(#mask-2)" xlink:href="#path-1"></use>
            </g>
        </g>
    </g>
</svg>