<?xml version="1.0" encoding="UTF-8" standalone="no"?>
<svg width="18px" height="18px" viewBox="0 0 18 18" version="1.1" xmlns="http://www.w3.org/2000/svg" xmlns:xlink="http://www.w3.org/1999/xlink">
    <!-- Generator: Sketch 41.2 (35397) - http://www.bohemiancoding.com/sketch -->
    <title>Icon</title>
    <desc>Created with Sketch.</desc>
    <defs></defs>
    <g id="Page-1" stroke="none" stroke-width="1" fill="none" fill-rule="evenodd">
        <g id="Task-manager--mobile" transform="translate(-327.000000, -890.000000)" fill="#0093EE">
            <g id="Icon" transform="translate(327.000000, 890.000000)">
                <path d="M12,14 L14,14 L14,10 L12,10 L12,14 Z M8,14 L10,14 L10,4 L8,4 L8,14 Z M4,14 L6,14 L6,7 L4,7 L4,14 Z M16,0 L2,0 C0.9,0 0,0.9 0,2 L0,16 C0,17.1 0.9,18 2,18 L16,18 C17.1,18 18,17.1 18,16 L18,2 C18,0.9 17.1,0 16,0 L16,0 Z"></path>
            </g>
        </g>
    </g>
</svg>