<?xml version="1.0" encoding="UTF-8" standalone="no"?>
<svg width="48px" height="48px" viewBox="0 0 48 48" version="1.1" xmlns="http://www.w3.org/2000/svg" xmlns:xlink="http://www.w3.org/1999/xlink">
    <!-- Generator: Sketch 41.2 (35397) - http://www.bohemiancoding.com/sketch -->
    <title>Section Symbols / Green Task 48px</title>
    <desc>Created with Sketch.</desc>
    <defs></defs>
    <g id="Symbols" stroke="none" stroke-width="1" fill="none" fill-rule="evenodd">
        <g id="Menus-/-#13" transform="translate(-30.000000, -196.000000)">
            <g id="Options" transform="translate(0.000000, 91.000000)">
                <g id="Task-Manager" transform="translate(0.000000, 95.000000)">
                    <g id="Section-Symbols-/-Green-Task-48px" transform="translate(30.000000, 10.000000)">
                        <g id="Section-Symbols-/-Blue-48px">
                            <rect id="Background" fill="#81C926" x="0" y="0" width="48" height="48" rx="12"></rect>
                            <path d="M26.7,28.5 L28.5,28.5 L28.5,24.9 L26.7,24.9 L26.7,28.5 Z M23.1,28.5 L24.9,28.5 L24.9,18.6 L23.1,18.6 L23.1,28.5 Z M18.6,29.4 L20.4,29.4 L20.4,22.2 L18.6,22.2 L18.6,29.4 Z M31,15 L17,15 C15.9,15 15,15.9 15,17 L15,31 C15,32.1 15.9,33 17,33 L31,33 C32.1,33 33,32.1 33,31 L33,17 C33,15.9 32.1,15 31,15 L31,15 Z" id="Icon" fill="#FFFFFF"></path>
                        </g>
                    </g>
                </g>
            </g>
        </g>
    </g>
</svg>